<?xml version="1.0" encoding="UTF-8" standalone="no"?>
<!DOCTYPE svg PUBLIC "-//W3C//DTD SVG 1.1//EN" "http://www.w3.org/Graphics/SVG/1.1/DTD/svg11.dtd">
<svg width="100%" height="100%" viewBox="0 0 1952 2014" version="1.1" xmlns="http://www.w3.org/2000/svg" style="fill-rule:evenodd;clip-rule:evenodd;stroke-linejoin:round;stroke-miterlimit:1.41421;">
    <g id="björn" transform="matrix(1,0,0,1,0,73)">
        <g id="bear">
            <g transform="matrix(0.884334,0,0,0.892567,378.524,1547.25)">
                <path d="M31.218,52.027C59.308,13.645 149.838,0 149.838,0C149.838,0 163.593,74.045 181.054,104.054C199.896,136.436 272.622,187.297 272.622,187.297C272.622,187.297 111.522,250.66 52.029,208.108C26.214,189.645 0,165.611 0,135.27C0,104.054 13.746,75.9 31.218,52.027Z" style="fill:none;stroke:black;stroke-width:67.53px;"/>
                <path d="M31.218,52.027C59.308,13.645 149.838,0 149.838,0C149.838,0 163.593,74.045 181.054,104.054C199.896,136.436 272.622,187.297 272.622,187.297C272.622,187.297 111.522,250.66 52.029,208.108C26.214,189.645 0,165.611 0,135.27C0,104.054 13.746,75.9 31.218,52.027Z" style="fill:white;fill-rule:nonzero;"/>
            </g>
            <g transform="matrix(1,0,0,1,488.981,10.3575)">
                <path d="M284.719,200.743C284.719,200.743 255.103,165.523 253.502,138.311C251.685,107.417 261.558,85.999 284.719,65.473C309.797,43.248 336.289,33.722 367.962,44.662C397.96,55.024 419.989,107.095 419.989,107.095C419.989,107.095 473.016,61.449 513.638,44.662C563.034,24.249 595.614,27.903 648.908,23.851C701.583,19.847 731.544,19.35 784.179,23.851C833.434,28.064 909.044,44.662 909.044,44.662C909.044,44.662 918.101,22.193 929.854,13.446C943.295,3.443 954.819,1.234 971.476,3.04C997.344,5.845 1010.56,22.092 1023.5,44.662C1035.8,66.103 1023.5,107.095 1023.5,107.095C1023.5,107.095 1091.03,176.887 1117.15,231.96C1157.55,317.119 1121.08,381.068 1148.37,471.284C1173.11,553.056 1234.4,583.895 1242.02,668.987C1249.92,757.384 1189.61,799.319 1179.58,887.501C1172.7,948.065 1173.62,982.921 1179.58,1043.58C1186.92,1118.15 1197.49,1159.8 1221.21,1230.88C1237.92,1280.99 1254.53,1306.34 1273.23,1355.75C1295.98,1415.84 1321.12,1447.71 1325.26,1511.83C1330.4,1591.5 1319.14,1644.21 1273.23,1709.53C1212.62,1795.78 1136.48,1810.08 1033.91,1834.39C923.126,1860.65 856.409,1823.68 742.557,1823.99C636.826,1824.28 577.355,1843.49 472.016,1834.39C360.04,1824.72 289.274,1826.63 191.07,1771.96C120.593,1732.73 72.433,1708.13 34.989,1636.69C6.132,1581.63 9.957,1542.46 3.772,1480.61C-7.173,1371.14 7.516,1308.35 24.583,1199.66C44.765,1071.14 83.705,1004.94 107.827,877.095C134.369,736.427 111.695,650.988 149.448,512.906C184.488,384.749 284.719,200.743 284.719,200.743Z" style="fill:white;fill-rule:nonzero;stroke:black;stroke-width:30px;"/>
            </g>
            <g transform="matrix(0.884334,0,0,0.892567,378.524,1547.25)">
                <path d="M31.218,52.027C59.308,13.645 129.318,0 129.318,0C128.685,67.349 158.001,136.584 232.878,205.512C232.878,205.512 111.522,250.66 52.029,208.108C26.214,189.645 0,165.611 0,135.27C0,104.054 13.746,75.9 31.218,52.027Z" style="fill:white;fill-rule:nonzero;"/>
            </g>
            <g id="facce">
                <g transform="matrix(0,-1,-1,0,1234.99,426.788)">
                    <ellipse cx="31.216" cy="41.621" rx="41.622" ry="31.216"/>
                </g>
                <g transform="matrix(0,-1,-1,0,1594.59,458.41)">
                    <ellipse cx="31.216" cy="41.621" rx="41.622" ry="31.216"/>
                </g>
                <g transform="matrix(0.998471,0.055271,0.055271,-0.998471,1386.34,508.666)">
                    <ellipse cx="42.114" cy="0.806" rx="93.646" ry="42.114"/>
                </g>
                <g transform="matrix(1,0,0,1,1292.83,638.817)">
                    <path d="M23.413,18.95C54.628,29.357 105.874,61.858 148.28,60.573C186.813,59.405 210.712,50.168 241.929,29.357C273.145,8.546 283.551,46.211 241.929,67.022C200.306,87.834 186.812,92.878 148.279,94.046C105.874,95.331 54.631,65.47 23.413,55.063C-7.806,44.657 -7.803,8.543 23.413,18.95Z" style="fill-rule:nonzero;"/>
                </g>
                <g transform="matrix(-0.205509,-0.978655,-0.978655,0.205509,1402.64,514.513)">
                    <ellipse cx="20.811" cy="18.515" rx="10.405" ry="20.811" style="fill:white;fill-opacity:0.2;"/>
                </g>
            </g>
            <g transform="matrix(0.43956,-0.073319,0.164528,0.986372,399.525,1.2028)">
                <path d="M957.745,347.444C957.745,336.406 937.635,327.444 912.865,327.444C888.095,327.444 867.985,336.406 867.985,347.444L870.985,1043.94C870.985,1054.98 891.095,1063.94 915.865,1063.94C940.635,1063.94 960.745,1054.98 960.745,1043.94L957.745,347.444Z"/>
            </g>
            <g transform="matrix(1,0,0,1,762.156,1336.12)">
                <path d="M197.703,6.75C242.977,2.969 269.188,12.82 312.163,27.56C360.324,44.08 390.926,53.685 426.622,89.993C480.675,144.972 489.055,200.19 489.055,277.29C489.055,370.938 499.46,482.798 468.244,506.21C426.622,537.425 332.973,537.425 239.325,537.425C165.171,537.425 104.054,549.386 52.027,485.399C10.93,434.854 41.622,318.912 41.622,318.912L0,235.669C0,235.669 5.967,137.209 41.622,89.993C83.251,34.865 128.862,12.498 197.703,6.75Z" style="fill:white;fill-rule:nonzero;"/>
            </g>
            <g transform="matrix(-1,0,0,1,1744.15,1335.71)">
                <path d="M197.703,6.749C242.977,2.969 269.188,12.82 312.162,27.56C360.324,44.08 390.926,53.685 426.622,89.993C480.675,144.972 489.055,200.189 489.055,277.29C489.055,370.938 503.347,493.617 472.13,517.028C430.509,548.243 336.86,548.244 243.211,548.244C169.058,548.244 149.563,549.799 97.536,485.812C56.438,435.267 87.13,319.325 87.13,319.325L0,235.669C0,235.669 5.967,137.209 41.622,89.993C83.251,34.865 128.862,12.498 197.703,6.749Z" style="fill:white;fill-rule:nonzero;"/>
            </g>
            <g transform="matrix(1.17646,0,0,1,-128.627,-32.7413)">
                <path d="M790.239,1703.3C790.239,1697.78 786.43,1693.3 781.738,1693.3C777.047,1693.3 773.238,1697.78 773.238,1703.3C767.521,1755.93 767.95,1808.54 777.826,1861.13C777.826,1866.65 781.635,1871.13 786.326,1871.13C791.017,1871.13 800.677,1863.01 800.677,1857.49C798.796,1846.94 791.401,1840.02 790.183,1829.44C785.362,1787.57 785.643,1745.52 790.239,1703.3Z"/>
            </g>
            <g transform="matrix(1.13638,0.304491,0.258819,-0.965926,-567.038,2959.37)">
                <path d="M790.058,1704.43C790.058,1698.91 786.249,1694.43 781.558,1694.43C776.867,1694.43 773.058,1698.91 773.058,1704.43C766.515,1760.05 774.674,1821.72 783.062,1842.85C786.752,1852.15 810.488,1858.41 804.602,1849.54C793.505,1832.82 782.596,1762.65 790.058,1704.43Z"/>
            </g>
            <g transform="matrix(0.373066,-0.0999628,0.258819,0.965926,189.365,174.662)">
                <path d="M1059.3,1768.81C1059.3,1763.29 1047.7,1758.81 1033.41,1758.81C1019.12,1758.81 1007.51,1763.29 1007.51,1768.81C1009.42,1800.78 997.472,1831.27 972.55,1860.38C972.55,1865.9 983.115,1875.63 997.405,1875.63C1011.7,1875.63 1023.3,1871.15 1023.3,1865.63C1048.46,1834.87 1061.35,1802.7 1059.3,1768.81Z"/>
            </g>
            <g transform="matrix(0.325821,-0.207393,0.536971,0.843601,-147.917,510.213)">
                <path d="M1059.3,1768.81C1059.3,1763.29 1047.7,1758.81 1033.41,1758.81C1019.12,1758.81 1007.51,1763.29 1007.51,1768.81C1007.35,1798.66 982.211,1821.56 936.707,1840.64C936.707,1846.16 946.325,1860.19 960.614,1860.19C974.904,1860.19 984.092,1855.11 984.092,1849.59C1042.58,1824.05 1059.3,1796.05 1059.3,1768.81Z"/>
            </g>
            <g transform="matrix(-1,0,0,1,2478.75,0)">
                <g transform="matrix(0.373066,-0.0999628,0.258819,0.965926,189.365,174.662)">
                    <path d="M1059.3,1768.81C1059.3,1763.29 1047.7,1758.81 1033.41,1758.81C1019.12,1758.81 1007.51,1763.29 1007.51,1768.81C1009.42,1800.78 991.091,1840.47 966.168,1869.58C966.168,1875.1 976.733,1884.83 991.023,1884.83C1005.31,1884.83 1016.92,1880.35 1016.92,1874.83C1042.08,1844.07 1061.35,1802.7 1059.3,1768.81Z"/>
                </g>
                <g transform="matrix(0.325821,-0.207393,0.536971,0.843601,-147.917,510.213)">
                    <path d="M1059.3,1768.81C1060.87,1763.52 1047.7,1758.81 1033.41,1758.81C1019.12,1758.81 1007.51,1763.29 1007.51,1768.81C998.294,1796.48 963.621,1825.06 930.089,1847.04C930.089,1852.56 940.743,1865.87 955.033,1865.87C969.323,1865.87 978.511,1860.8 978.511,1855.28C1021.29,1825.77 1051.78,1794.15 1059.3,1768.81Z"/>
                </g>
            </g>
            <g transform="matrix(0.940923,-0.121234,0.127789,0.991801,-18.7031,175.525)">
                <path d="M1573.13,1689.24C1573.13,1683.72 1568.41,1679.24 1562.59,1679.24C1556.77,1679.24 1552.05,1683.72 1552.05,1689.24C1552.82,1727.87 1561.57,1766.38 1540.16,1815.03C1537.58,1820.9 1544.89,1825.03 1550.7,1825.03C1556.52,1825.03 1561.24,1820.55 1561.24,1815.03C1576.77,1780.64 1574.33,1728.14 1573.13,1689.24Z"/>
            </g>
            <g transform="matrix(-0.940923,-0.121234,-0.127789,0.991801,2949.31,216.638)">
                <path d="M1455.3,1322.83C1455.3,1317.31 1448.93,1322.33 1443.12,1322.33C1437.3,1322.33 1436.12,1330.14 1436.12,1335.66C1477.7,1359.39 1559.9,1423.13 1577.79,1512.25C1583.72,1541.8 1560.9,1690 1543.48,1796.7C1541.42,1809.3 1537.11,1819.8 1532.4,1827.91C1529.31,1833.23 1523.83,1841.64 1519.6,1842.97C1507.88,1846.66 1527.86,1850.73 1533.68,1850.73C1539.49,1850.73 1544.22,1846.25 1544.22,1840.73C1577.23,1795.14 1607.5,1508.27 1598.18,1506.47C1596.78,1462.47 1536.22,1370.25 1455.3,1322.83Z"/>
            </g>
            <g transform="matrix(0.940923,-0.121234,0.127789,0.991801,-442.13,216.638)">
                <path d="M1371.1,1292.4C1371.1,1286.89 1352.35,1292.29 1346.53,1292.29C1340.71,1292.29 1339.53,1300.1 1339.53,1305.62C1419.4,1315.74 1543.05,1382.32 1577.79,1512.25C1585.59,1541.43 1555.84,1729.37 1544.18,1787.26C1540.01,1807.99 1531.21,1825.69 1522.55,1829.39C1511.87,1833.97 1527.86,1850.73 1533.68,1850.73C1539.49,1850.73 1544.22,1846.25 1544.22,1840.73C1577.23,1795.14 1607.5,1508.27 1598.18,1506.47C1577.33,1415.39 1475.13,1309.88 1371.1,1292.4Z"/>
            </g>
            <g transform="matrix(1,0,0,1,564.453,886.426)">
                <path d="M62.432,92.255L208.108,92.255C208.703,95.267 376.256,38.919 457.838,81.85C522.667,115.965 557.505,164.806 561.892,237.931C566.246,310.492 528.936,351.927 478.649,404.418C435.739,449.208 401.831,466.907 343.379,487.661C285.43,508.237 247.541,520.806 187.297,508.472C121.04,494.907 89.128,462.96 41.622,414.823C0.455,373.111 0,300.364 0,300.364L62.432,92.255Z" style="fill:white;fill-rule:nonzero;"/>
            </g>
            <g transform="matrix(1,0,0,1,1362.38,905.843)">
                <path d="M13.702,208.108C28.482,170.256 41.837,146.659 76.134,124.865C111.11,102.639 138.846,106.904 180.188,104.054C229.004,100.689 263.428,104.054 263.428,104.054L242.617,0C242.617,0 242.023,8.874 264.123,14.833C294.249,22.956 321.118,38.143 338.148,47.836C372.215,67.228 387.647,89.533 408.837,124.206C427.789,155.219 422.977,167.471 431.353,202.838C439.782,238.426 446.469,248.089 436.624,283.311C426.304,320.232 437.06,353.817 410.257,381.226C380.387,411.772 372.504,424.842 333.634,443.686C303.482,458.304 286.292,474.617 253.026,478.649C220.754,482.561 202.055,482.561 169.783,478.649C136.517,474.617 114.762,475.903 86.539,457.838C59.809,440.728 50.676,422.719 34.512,395.406C16.83,365.527 8.431,346.5 3.296,312.163C-2.744,271.773 -1.153,246.149 13.702,208.108Z" style="fill:white;fill-rule:nonzero;"/>
            </g>
            <g transform="matrix(1,0,0,1,0,-73)">
                <path d="M1031,1064.79C1017.65,1054.03 1003.83,1046.74 990.773,1045.39C883.272,1034.29 846.442,1045.36 782.284,1069.36C777.114,1071.29 771.363,1068.45 769.533,1063.24C767.702,1058.04 770.437,1052.31 775.649,1050.49C847.022,1025.65 883.603,1012.79 992.774,1025.83C1006.33,1027.45 1093.48,1063.95 1122.68,1169.01C1123.68,1172.63 1152.06,1262.04 1059.98,1363.1C1039.15,1385.96 998.706,1417.56 949.477,1443.77C904.125,1467.91 870.075,1494.3 798.247,1490.76C795.808,1490.64 753.231,1489.27 704.827,1464.55C649.52,1436.29 555.938,1318.92 528.357,1283.97C488.62,1233.62 530.723,1247.85 535.928,1256.34C549.884,1279.1 628.312,1388.82 712.967,1445.89C743.141,1466.23 787.625,1469.62 809.183,1470.94C836.333,1472.62 872.472,1463.65 913.918,1441.69C919.322,1438.83 1017.22,1383.7 1045.43,1350.98C1108.32,1278.02 1110.47,1221.99 1104.41,1179.16C1103.8,1174.87 1102.62,1170.07 1100.93,1164.93C1092.13,1160.44 1063.69,1150.71 1041.2,1158.51C1032.51,1161.53 1029.1,1163.32 1026.99,1164.46C1022.12,1167.07 1016.06,1165.24 1013.44,1160.38C1010.83,1155.51 1012.66,1149.45 1017.52,1146.84C1019.88,1145.57 1024.86,1142.9 1032.71,1139.98C1054.2,1131.99 1078.34,1135.95 1089.94,1139.42C1079.86,1120.03 1065.5,1099.18 1049.42,1082.04C1033.95,1085.49 1011.8,1083.38 993.576,1101.29C985.963,1108.78 980.902,1115.38 980.902,1115.38C976.999,1119.28 970.663,1119.28 966.76,1115.38C962.857,1111.47 962.857,1105.13 966.76,1101.23C966.76,1101.23 971.303,1095.45 978.053,1088.64C990.605,1076 1004.46,1067.72 1031,1064.79Z"/>
            </g>
            <g transform="matrix(1,0,0,1,0,-73)">
                <path d="M1376.31,1207.73C1368.39,1239.08 1364.21,1310.21 1395.49,1371.91C1398.41,1377.67 1439.33,1459.39 1530.02,1452.57C1544.5,1451.49 1635.22,1445.27 1677.85,1434.7C1703.5,1428.34 1717.57,1414.33 1730.11,1401.9C1733.96,1398.09 1737.99,1395.38 1741.76,1391.87C1741.86,1391.77 1741.96,1391.68 1742.06,1391.59C1744.36,1389.46 1768.88,1393.37 1750.61,1412.45C1736.39,1427.31 1718.04,1445.36 1684.12,1454.26C1634.27,1467.35 1539.28,1472.23 1533.65,1472.78C1435.26,1482.31 1381.81,1389.49 1376.96,1379.7C1331.84,1288.71 1355.13,1208.09 1355.34,1207.3C1376.09,1132.21 1413.65,1111.2 1421.59,1106.51C1493.46,1064 1579,1072.03 1621.46,1076.48C1632.77,1077.66 1658.85,1081.4 1668.99,1083.05C1674.38,1083.92 1678.28,1088.86 1677.53,1094.32C1676.77,1099.79 1671.68,1103.42 1666.25,1102.86C1656.54,1101.86 1629.57,1097.75 1618.72,1096.29C1594.69,1093.05 1504.72,1082.52 1436.23,1120.34C1466.61,1128.51 1473.28,1138.71 1479.64,1145.02C1483.83,1149.17 1484.32,1154.92 1480.73,1159.12C1477.13,1163.31 1470.82,1163.79 1466.63,1160.2C1456,1151.1 1457.37,1146.36 1416.42,1134.83C1401.51,1148.84 1390.91,1166.87 1383.75,1184.82C1402.38,1179.3 1413.65,1180.88 1427.82,1183.9C1433.29,1185.07 1439.42,1187.11 1441.36,1187.68C1446.65,1189.26 1449.67,1194.83 1448.09,1200.12C1446.52,1205.41 1440.95,1208.43 1435.66,1206.85C1434.3,1206.45 1426.95,1204.42 1422.28,1203.28C1402.1,1198.39 1383.74,1205.45 1376.31,1207.73Z"/>
            </g>
            <g transform="matrix(0.254891,-0.367752,0.821886,0.569653,347.605,982.403)">
                <path d="M1824.38,1040.27L1757.33,1040.27C1802.31,1151.33 1764.33,1177.84 1746.8,1202.77C1730.98,1225.27 1625.65,1282.36 1557.1,1307.18C1545.41,1311.41 1464.23,1336.56 1384.84,1342.41C1344.58,1345.38 1298.6,1349.1 1194.61,1340.58C1157.8,1337.57 1126.66,1333.92 1126.66,1333.92L1130.65,1364.83C1130.65,1364.83 1138.32,1363.36 1154.84,1365.72C1241.88,1378.14 1329.87,1377.61 1406.38,1370.96C1488.51,1363.83 1552.62,1345.4 1596.59,1331.61C1675.96,1306.73 1778.6,1246.24 1811.45,1211.31C1857.08,1162.79 1857.87,1099.12 1824.38,1040.27Z"/>
            </g>
            <g transform="matrix(0.274493,0.104731,-0.356479,0.934303,1882.11,11.0128)">
                <path d="M1562.84,1741.82L1459.69,1742.42C1459.69,1742.42 1463.88,1825.98 1228.26,1866.96C1215.39,1869.2 908.06,1903.2 817.069,1913.05C742.148,1921.16 418.883,1946.49 334.267,1940.5C332.715,1940.39 203.744,1927.4 203.744,1927.4C203.744,1927.4 121.599,1954.45 106.939,1958.73C84.033,1965.42 85.019,1975.7 -233.538,2017.85C-257.679,2021.05 -701.496,2073.09 -741.866,2077.61C-1000.53,2106.53 -1142.02,2080.47 -1171.33,2076.78C-1191.68,2074.21 -1382.86,2071.38 -1255.86,2096.33C-1020.53,2142.57 -768.704,2113.75 -721.523,2108.84C-574.875,2093.59 -244.564,2051.76 -206.536,2047.49C0.083,2024.29 151.8,1990.34 190.296,1976.93C205.703,1971.57 225.975,1965.17 228.541,1962.33C240.162,1965.51 279.707,1967.97 295.412,1969.09C463.467,1980.99 760.225,1951.02 853.329,1940.97C1056.11,1919.09 1253.5,1896.48 1259.95,1895.53C1578.32,1848.85 1562.84,1741.82 1562.84,1741.82Z"/>
            </g>
            <g transform="matrix(0.16558,-0.276461,0.857898,0.51382,1015.91,365.606)">
                <path d="M1442.62,162.034L1379.66,161.897C1434.37,211.27 1439.1,256.641 1402.26,300.722L1464.32,300.722C1491.7,256.363 1488.58,210.593 1442.62,162.034Z"/>
            </g>
        </g>
        <g id="flag">
            <g transform="matrix(-0.514348,0.857582,0.857582,0.514348,827.697,257.893)">
                <path d="M34.366,29.094C20.079,32.683 -19.154,57.638 -1.318,68.36C16.519,79.081 11.167,88.005 34.366,89.785C55.025,91.371 64.696,59.445 64.696,59.445C64.696,59.445 48.652,25.506 34.366,29.094Z" style="fill:none;stroke:black;stroke-width:20px;"/>
                <path d="M34.366,29.094C20.079,32.683 -19.154,57.638 -1.318,68.36C16.519,79.081 11.167,88.005 34.366,89.785C55.025,91.371 64.696,59.445 64.696,59.445C64.696,59.445 48.652,25.506 34.366,29.094Z" style="fill:rgb(241,229,0);fill-rule:nonzero;"/>
            </g>
            <g transform="matrix(-0.514348,0.857582,0.857582,0.514348,898.91,652.272)">
                <path d="M33.509,29.601C19.222,33.19 -15.896,51.285 1.94,62.006C19.776,72.727 14.424,81.651 37.623,83.431C58.283,85.017 69.203,51.009 69.203,51.009C69.203,51.009 47.795,26.013 33.509,29.601Z" style="fill:rgb(241,229,0);fill-rule:nonzero;stroke:black;stroke-width:10px;"/>
            </g>
            <g transform="matrix(-0.948683,0.316228,0.316228,0.948683,967.218,234.906)">
                <path d="M58.001,18.377C37.285,17.936 -7.808,51.279 11.934,44.701C31.676,38.123 39.924,53.152 58.001,51.282C74.169,49.609 110.65,44.701 97.487,38.12C84.324,31.539 75.237,18.744 58.001,18.377Z" style="fill:none;stroke:black;stroke-width:20px;"/>
                <path d="M58.001,18.377C37.285,17.936 -7.808,51.279 11.934,44.701C31.676,38.123 39.924,53.152 58.001,51.282C74.169,49.609 110.65,44.701 97.487,38.12C84.324,31.539 75.237,18.744 58.001,18.377Z" style="fill:rgb(241,229,0);fill-rule:nonzero;"/>
            </g>
            <g transform="matrix(-0.948683,-0.316228,0.316228,-0.948683,958.896,374.833)">
                <path d="M58.001,18.377C37.285,17.936 -7.808,51.279 11.934,44.701C31.676,38.123 39.924,53.152 58.001,51.282C74.169,49.609 110.65,44.701 97.487,38.12C84.324,31.539 75.237,18.744 58.001,18.377Z" style="fill:none;stroke:black;stroke-width:20px;"/>
                <path d="M58.001,18.377C37.285,17.936 -7.808,51.279 11.934,44.701C31.676,38.123 39.924,53.152 58.001,51.282C74.169,49.609 110.65,44.701 97.487,38.12C84.324,31.539 75.237,18.744 58.001,18.377Z" style="fill:rgb(241,229,0);fill-rule:nonzero;"/>
            </g>
            <g transform="matrix(-0.724341,0.689442,0.689442,0.724341,966.846,580.751)">
                <path d="M53.22,60.027C32.504,59.586 -10.089,84.913 4.624,85.277C19.336,85.641 35.143,94.802 53.22,92.932C69.388,91.259 105.869,86.35 92.706,79.77C79.543,73.189 70.456,60.394 53.22,60.027Z" style="fill:none;stroke:black;stroke-width:20px;"/>
                <path d="M53.22,60.027C32.504,59.586 -10.089,84.913 4.624,85.277C19.336,85.641 35.143,94.802 53.22,92.932C69.388,91.259 105.869,86.35 92.706,79.77C79.543,73.189 70.456,60.394 53.22,60.027Z" style="fill:rgb(241,229,0);fill-rule:nonzero;"/>
            </g>
            <g transform="matrix(-0.993138,0.116948,-0.116948,-0.993138,1051.56,778.556)">
                <path d="M53.826,58.908C33.11,58.467 -11.39,80.039 9.277,82.473C29.945,84.907 35.749,93.682 53.826,91.812C69.994,90.14 106.474,85.231 93.311,78.65C80.148,72.07 71.062,59.274 53.826,58.908Z" style="fill:none;stroke:black;stroke-width:20px;"/>
                <path d="M53.826,58.908C33.11,58.467 -11.39,80.039 9.277,82.473C29.945,84.907 35.749,93.682 53.826,91.812C69.994,90.14 106.474,85.231 93.311,78.65C80.148,72.07 71.062,59.274 53.826,58.908Z" style="fill:rgb(241,229,0);fill-rule:nonzero;"/>
            </g>
            <g transform="matrix(1,0,0,1,22.9766,285.23)">
                <path d="M438.593,97.02C431.391,97.815 423.951,98.875 416.217,100.269C398.596,103.443 382.938,107.291 368.387,111.574C357.694,114.721 346.173,118.62 338.081,121.515C327.412,125.333 317.051,129.317 306.567,133.35C280.268,143.465 253.191,153.879 218.514,162.701C182.242,171.929 136.663,177.069 96.53,181.594C43.512,187.572 -0.001,192.479 0,204.323C0.002,225.133 117.956,256.896 197.703,277.161C244.091,288.949 282.074,290.387 319.768,291.814C354.941,293.146 389.863,294.469 431.128,304.181C510.861,322.946 562.163,364.061 642.416,390.725C643.317,391.025 644.224,391.323 645.136,391.621C732.306,420.02 885.344,447.845 885.344,447.845C885.344,447.845 833.984,305.622 822.032,214.726C814.675,158.783 817.056,90.526 812.906,55.477C811.37,42.5 799.401,30.486 799.401,30.486C799.401,30.486 748.211,53.7 684.117,73.67C680.025,74.946 674.109,76.74 671.05,77.647C657.248,81.744 643.613,85.443 630.777,88.416C620.643,90.764 550.363,97.038 543.749,96.906C534.748,96.726 525.887,96.348 516.998,95.969C515.462,95.904 513.925,95.838 512.386,95.773C501.801,95.329 461.079,94.539 438.593,97.02Z" style="fill:none;stroke:black;stroke-width:20px;"/>
                <path d="M438.593,97.02C431.391,97.815 423.951,98.875 416.217,100.269C398.596,103.443 382.938,107.291 368.387,111.574C357.694,114.721 346.173,118.62 338.081,121.515C327.412,125.333 317.051,129.317 306.567,133.35C280.268,143.465 253.191,153.879 218.514,162.701C182.242,171.929 136.663,177.069 96.53,181.594C43.512,187.572 -0.001,192.479 0,204.323C0.002,225.133 117.956,256.896 197.703,277.161C244.091,288.949 282.074,290.387 319.768,291.814C354.941,293.146 389.863,294.469 431.128,304.181C510.861,322.946 562.163,364.061 642.416,390.725C643.317,391.025 644.224,391.323 645.136,391.621C732.306,420.02 885.344,447.845 885.344,447.845C885.344,447.845 833.984,305.622 822.032,214.726C814.675,158.783 817.056,90.526 812.906,55.477C811.37,42.5 799.401,30.486 799.401,30.486C799.401,30.486 748.211,53.7 684.117,73.67C680.025,74.946 674.109,76.74 671.05,77.647C657.248,81.744 643.613,85.443 630.777,88.416C620.643,90.764 550.363,97.038 543.749,96.906C534.748,96.726 525.887,96.348 516.998,95.969C515.462,95.904 513.925,95.838 512.386,95.773C501.801,95.329 461.079,94.539 438.593,97.02Z"/>
            </g>
            <g transform="matrix(1,0,0,1,22.9766,285.23)">
                <path d="M438.593,97.02C431.391,97.815 423.951,98.875 416.217,100.269C398.596,103.443 382.938,107.291 368.387,111.574C374.557,113.383 380.212,117.277 384.231,123.086C393.551,136.296 390.185,154.789 377.24,164.564C364.295,174.075 346.172,170.641 336.593,157.431C329.045,146.428 329.94,131.758 338.081,121.515C327.412,125.333 317.051,129.317 306.567,133.35C280.268,143.465 253.191,153.879 218.514,162.701C182.242,171.929 136.663,177.069 96.53,181.594C43.512,187.572 -0.001,192.479 0,204.323C0.002,225.133 117.956,256.896 197.703,277.161C244.091,288.949 282.074,290.387 319.768,291.814C354.941,293.146 389.863,294.469 431.128,304.181C432.279,300.169 432.904,295.949 432.904,291.64C470.445,328.099 531.286,331.269 569.345,299.566C588.762,281.073 602.484,254.653 595.235,222.158C590.057,199.702 568.309,176.717 541.383,176.717C520.153,176.717 503.843,193.889 499.959,215.025C498.924,223.479 498.406,244.086 515.493,253.861C508.503,252.804 503.584,249.634 500.736,246.992C493.746,240.387 490.38,232.197 489.603,224.536C487.532,207.363 493.487,190.191 504.361,178.566C537.5,142.108 596.529,157.431 618.795,204.193C633.034,234.047 634.329,267.599 621.384,297.452C630.704,294.811 641.06,295.339 650.898,299.302C674.976,309.341 686.368,337.081 676.788,361.651C670.557,377.213 657.367,387.687 642.416,390.725C643.317,391.025 644.224,391.323 645.136,391.621C732.306,420.02 885.344,447.845 885.344,447.845C885.344,447.845 833.984,305.622 822.032,214.726C815.093,161.962 817.287,92.376 812.906,55.477C810.923,38.769 799.401,30.486 799.401,30.486C799.401,30.486 748.211,53.7 684.117,73.67C698.862,72.389 712.624,83.674 714.847,99.045L714.588,99.045C716.659,115.424 705.785,130.748 689.733,132.597C674.199,135.239 659.442,123.614 657.112,107.499C655.557,95.201 661.299,83.499 671.05,77.647C657.248,81.744 643.613,85.443 630.777,88.416C627.233,100.852 618.887,111.37 607.662,117.538C615.429,120.708 623.714,124.671 631.998,129.427C683.779,161.13 707.597,232.461 699.313,282.658C687.662,266.806 662.29,263.372 644.167,275.26C654.005,223.479 623.455,169.584 576.853,153.732C550.963,147.392 521.448,150.298 499.183,174.075C483.648,190.719 475.881,221.629 490.898,244.878C502.548,263.372 525.073,267.599 544.749,259.145C552.516,255.71 569.862,244.614 568.05,224.8C571.157,231.669 571.416,237.481 570.639,241.444C568.827,250.691 563.649,257.824 557.694,262.579C544.749,274.204 527.92,278.431 512.386,275.789C463.713,266.806 444.296,207.892 470.962,163.243C488.568,132.861 518.341,113.047 552.775,109.348C549.135,105.767 546.083,101.586 543.749,96.906C534.748,96.726 525.887,96.348 516.998,95.969C515.462,95.904 513.925,95.838 512.386,95.773C515.311,98.53 518.611,100.9 522.225,102.743C473.034,120.18 442.742,174.075 452.839,222.95C460.089,249.37 477.176,273.147 508.762,281.073C530.768,286.885 560.542,277.902 572.969,253.332C582.549,234.047 575.04,211.59 558.212,198.645C551.48,193.361 533.357,183.586 517.306,194.946C521.448,188.87 526.367,185.699 530.251,184.378C539.312,181.737 547.856,182.265 554.846,184.907C570.898,190.719 582.807,203.4 588.503,219.252C605.332,266.014 565.202,312.776 513.94,311.719C477.694,311.19 444.813,293.225 424.619,262.315C421.253,269.712 416.075,276.317 409.085,281.337C387.855,296.66 358.6,291.376 343.583,269.712C328.826,248.049 334.004,218.195 355.234,203.136C370.25,192.568 389.668,191.776 404.943,200.494C404.425,196.003 404.425,191.248 404.425,186.229L404.425,186.228C404.838,153.239 418.7,121.892 438.593,97.02ZM596.255,372.757C589.856,364.306 586.286,353.9 586.432,343.158C580.079,348.344 572.686,353.354 564.679,357.753C574.825,362.802 585.21,367.837 596.255,372.757ZM737.63,180.944C747.949,179.705 752.197,168.649 751.093,162.451C749.539,153.732 741.513,147.392 732.97,148.448C724.685,149.769 718.212,157.959 719.507,166.942C720.801,175.66 728.827,182.001 737.63,180.944Z" style="fill:rgb(241,229,0);"/>
            </g>
        </g>
    </g>
</svg>
