<svg xmlns="http://www.w3.org/2000/svg" viewBox="0 0 308 160" height="160" width="308"><path d="M161.2 159c-5.7-2.3-8.5-8.8-6.2-14.6 2.3-5.7 9-8.5 14.6-6.2 5.8 2.3 8.6 9 6.2 14.6-2.3 5.8-8.8 8.5-14.6 6.2zm-27.8.4c-3.2-1.3-4.7-5-3.4-8 1.3-3.2 4.8-4.7 8-3.4 3 1.2 4.6 4.8 3.4 8-1.3 3-5 4.6-8 3.4zm8.7-150c-3 7 1 16.3 8.4 20-19 6.6-30.7 27-26.8 45.5 2.8 10 9.4 19 21.6 22 8.5 2.2 20-1.2 24.8-10.5 3.7-7.3.8-15.8-5.7-20.7-2.6-2-9.6-5.7-15.8-1.4 1.6-2.3 3.5-3.5 5-4 3.5-1 6.8-.8 9.5.2 6.2 2.2 10.8 7 13 13 6.5 17.7-9 35.4-28.8 35-14-.2-26.7-7-34.5-18.7-1.3 2.8-3.3 5.3-6 7.2-8.2 5.8-19.5 3.8-25.3-4.4-5.7-8.2-3.7-19.5 4.5-25.2 5.8-4 13.3-4.3 19.2-1-.2-1.7-.2-3.5-.2-5.4.3-23.5 19-44.8 37-51.7zM224.8 28c.8 6.2-3.4 12-9.6 12.7-6 1-11.7-3.4-12.6-9.5-.8-6.2 3.4-12 9.6-12.7 6-1 11.8 3.4 12.7 9.5zM239 52c.3 3.3-2 6.4-5.3 7-3.4.4-6.5-2-7-5.3-.5-3.4 2-6.5 5.2-7 3.3-.4 6.4 2 7 5.3zm-46-35.5c1 7.8-3 15-9.5 18.5 3 1.2 6.2 2.7 9.4 4.5 20 12 29.2 39 26 58-4.5-6-14.3-7.3-21.3-2.8 3.8-19.6-8-40-26-46-10-2.4-21.4-1.3-30 7.7-6 6.3-9 18-3.2 26.8 4.5 7 13.2 8.6 20.8 5.4 3-1.3 9.7-5.5 9-13 1.2 2.6 1.3 4.8 1 6.3-.7 3.5-2.7 6.2-5 8-5 4.4-11.5 6-17.5 5-18.8-3.4-26.3-25.7-16-42.6 6.8-11.5 18.3-19 31.6-20.4-2.8-2.7-4.7-6.3-5.3-10.5-1.3-10 5.6-19 15.5-20.4 10-1.3 19 5.6 20.4 15.5zM102 117.3c7.6-.5 14-8 14-16.4 14.5 13.8 38 15 52.7 3 7.5-7 12.8-17 10-29.3-2-8.5-10.4-17.2-20.8-17.2-8.2 0-14.5 6.5-16 14.5-.4 3.2-.6 11 6 14.7-2.7-.4-4.6-1.6-5.7-2.6-2.7-2.5-4-5.6-4.3-8.5-.8-6.5 1.5-13 5.7-17.4 12.8-13.8 35.6-8 44.2 9.7 5.5 11.3 6 24 1 35.3 3.6-1 7.6-.8 11.4.7 9.3 3.8 13.7 14.3 10 23.6-3.8 9.3-14.3 13.8-23.6 10-7-3-11.4-9.8-11.3-17-3 2.4-6.6 4.7-10.5 6.6-21 10.3-48.6 3.4-63-9.7zm-20.4-83c5-3.5 12-2.3 15.6 2.8 3.6 5 2.3 12-2.7 15.7-5 3.6-12 2.3-15.7-2.7-3.5-5-2.3-12 2.8-15.7zm15-23.5c2.6-2 6.5-1.3 8.4 1.5 2 2.8 1.3 6.6-1.5 8.5-2.8 2-6.6 1.3-8.5-1.5-2-2.7-1.3-6.6 1.5-8.5" fill="#f1e500"/><path d="M24 100H40l24-54.4H48L32 87 16.2 45.6H0L24 100M148.3 100H163V45.5h-14.7V100M305.6 61.3C304.6 46 288 44 277 44c-17.2 0-27 5-27 17 0 11.2 9 14 18.5 15.5l13.5 2c5.8 1 9.2 2 9.2 6.3 0 4.7-4.7 6.7-11.7 6.7-6.4 0-13.8-1.3-14-8.7H249c0 17 17.3 18.6 30.5 18.6 21.4 0 28.2-8 28.2-18.2 0-10-7.5-13.6-17.4-15.2L272 65c-4-.6-6.4-2.2-6.4-5 0-3.8 4-6.5 10-6.5s12.8.8 13.7 7.8h16.3" fill="#231f20"/></svg>